# xmcd CD database file
#
# Track frame offsets:
#	187
#	32175
#	56972
#	81945
#	102860
#	146462
#	171540
#	205332
#	237647
#
# Disc length: 3506 seconds
#
# Revision: 0
# Processed by: cddbd v1.5.1PL2 Copyright (c) Steve Scherf et al.
# Submitted via: CDex 1.51
#
DISCID=870db009
DTITLE=Julian Adderley Quintet - Portrait Of Cannonball
DYEAR=1958
DGENRE=Jazz
TTITLE0=MINORITY
TTITLE1=STRAIGHT LIFE
TTITLE2=BLUE FUNK
TTITLE3=A LITTLE TASTE
TTITLE4=PEOPLE WILL SAY WE'RE IN LOVE
TTITLE5=NARDIS(TAKE5)
TTITLE6=MINORITY(take2)
TTITLE7=MINORITY(take3)
TTITLE8=NARDIS(take4)
EXTD=YEAR: 1958
EXTT0=
EXTT1=
EXTT2=
EXTT3=
EXTT4=
EXTT5=
EXTT6=
EXTT7=
EXTT8=
PLAYORDER=
